<svg xmlns="http://www.w3.org/2000/svg" viewBox="0 0 800 600" role="img" aria-label="Barbed wire roll"><defs><linearGradient id="bg" x1="0" x2="1"><stop offset="0" stop-color="#0b1426"/><stop offset="1" stop-color="#132949"/></linearGradient><linearGradient id="wire" x1="0" x2="1"><stop offset="0" stop-color="#eef3fa"/><stop offset="1" stop-color="#7a8592"/></linearGradient></defs><rect width="800" height="600" rx="36" fill="url(#bg)"/><g transform="translate(150 70)"><circle cx="250" cy="220" r="150" fill="none" stroke="url(#wire)" stroke-width="10"/><circle cx="250" cy="220" r="130" fill="none" stroke="url(#wire)" stroke-width="8"/><circle cx="250" cy="220" r="110" fill="none" stroke="url(#wire)" stroke-width="6"/><circle cx="250" cy="220" r="90" fill="none" stroke="url(#wire)" stroke-width="6"/><circle cx="250" cy="220" r="70" fill="none" stroke="#123e87" stroke-width="18" opacity=".8"/></g><g stroke="#d9e0e9" stroke-width="5"><line x1="120" y1="120" x2="680" y2="420"/><line x1="120" y1="420" x2="680" y2="120"/></g><g fill="#d9e0e9"><polygon points="240,185 250,170 260,185 250,200"/><polygon points="320,245 330,230 340,245 330,260"/><polygon points="468,308 478,293 488,308 478,323"/><polygon points="554,240 564,225 574,240 564,255"/></g><text x="400" y="535" font-family="Inter, Arial, sans-serif" font-size="38" font-weight="700" text-anchor="middle" fill="#dce7f7">Barbed Wire Roll</text></svg>