<svg xmlns="http://www.w3.org/2000/svg" viewBox="0 0 800 600" role="img" aria-label="Carbon steel pipe bundle"><defs><linearGradient id="bg" x1="0" x2="1"><stop offset="0" stop-color="#0b1426"/><stop offset="1" stop-color="#132949"/></linearGradient><linearGradient id="steel" x1="0" x2="1"><stop offset="0" stop-color="#c3cad3"/><stop offset="1" stop-color="#6a7481"/></linearGradient></defs><rect width="800" height="600" rx="36" fill="url(#bg)"/><g opacity=".14"><circle cx="120" cy="120" r="100" fill="#ffffff"/><circle cx="690" cy="80" r="80" fill="#6fa0ff"/></g><g transform="translate(120 160)"><rect x="0" y="40" width="520" height="58" rx="29" fill="#1f3a5c"/><rect x="26" y="40" width="468" height="58" rx="29" fill="url(#steel)"/><circle cx="50" cy="69" r="20" fill="#314153"/><circle cx="50" cy="69" r="11" fill="#0d1728"/><rect x="40" y="120" width="470" height="58" rx="29" fill="#1f3a5c"/><rect x="66" y="120" width="418" height="58" rx="29" fill="url(#steel)"/><circle cx="90" cy="149" r="20" fill="#314153"/><circle cx="90" cy="149" r="11" fill="#0d1728"/><rect x="80" y="200" width="420" height="58" rx="29" fill="#1f3a5c"/><rect x="106" y="200" width="368" height="58" rx="29" fill="url(#steel)"/><circle cx="130" cy="229" r="20" fill="#314153"/><circle cx="130" cy="229" r="11" fill="#0d1728"/></g><text x="400" y="535" font-family="Inter, Arial, sans-serif" font-size="38" font-weight="700" text-anchor="middle" fill="#dce7f7">Carbon Steel Pipe</text></svg>