<svg xmlns="http://www.w3.org/2000/svg" viewBox="0 0 800 600" role="img" aria-label="Weld neck flange"><defs><linearGradient id="bg" x1="0" x2="1"><stop offset="0" stop-color="#0b1426"/><stop offset="1" stop-color="#132949"/></linearGradient><radialGradient id="metal" cx="50%" cy="40%" r="70%"><stop offset="0" stop-color="#f7f9fd"/><stop offset="1" stop-color="#6e7784"/></radialGradient></defs><rect width="800" height="600" rx="36" fill="url(#bg)"/><g transform="translate(175 80)"><circle cx="225" cy="200" r="170" fill="url(#metal)"/><circle cx="225" cy="200" r="92" fill="#132949" opacity=".95"/><path d="M225 30c35 50 52 92 52 170s-17 120-52 170c88-17 155-94 155-170S313 47 225 30z" fill="#8b96a4" opacity=".55"/><g fill="#53606e"><circle cx="225" cy="60" r="16"/><circle cx="343" cy="108" r="16"/><circle cx="390" cy="225" r="16"/><circle cx="343" cy="342" r="16"/><circle cx="225" cy="390" r="16"/><circle cx="107" cy="342" r="16"/><circle cx="60" cy="225" r="16"/><circle cx="107" cy="108" r="16"/></g></g><text x="400" y="535" font-family="Inter, Arial, sans-serif" font-size="38" font-weight="700" text-anchor="middle" fill="#dce7f7">Weld Neck Flange</text></svg>